<svg xmlns="http://www.w3.org/2000/svg" xmlns:svg="http://www.w3.org/2000/svg" id="svg2" width="100" height="100" version="1.1"><metadata id="metadata7"/><g id="layer1" transform="translate(-14.142136,-15.945672)"><rect style="fill:none;stroke:none" id="rect2985" width="100" height="100" x="14.142" y="15.946"/><path style="fill:#999;stroke:#000;stroke-width:.79639822000000005;stroke-linecap:round;stroke-linejoin:round;stroke-miterlimit:4;stroke-opacity:1;stroke-dasharray:none;stroke-dashoffset:0" id="path3755" d="m 85.862963,55.972965 a 20.581858,20.581858 0 1 1 -41.163716,0 20.581858,20.581858 0 1 1 41.163716,0 z" transform="matrix(1.255137,0,0,1.2561696,-30.702181,-8.8135892)"/><path style="fill:#fff;fill-opacity:1;stroke:none" id="path63865" d="m 47.992615,40.259439 c 1.417442,1.790583 -1.01991,6.217615 -5.443981,9.88804 -4.424075,3.670426 -9.159566,5.194331 -10.577009,3.403749 -1.417441,-1.790583 1.01992,-6.217599 5.443995,-9.888025 4.424072,-3.670425 9.159553,-5.194346 10.576995,-3.403764 z"/><path style="fill:#333;fill-opacity:1;stroke:none" id="path63867" d="m 73.062691,66.009287 c 2.631208,-1.550728 -1.364403,8.317736 -7.282793,13.227918 -5.918393,4.910184 -16.519882,6.480063 -14.149598,4.553431 4.252309,-3.456285 5.816809,-2.694595 11.735201,-7.60478 5.918389,-4.910182 6.740946,-8.434173 9.69719,-10.176569 z"/><path style="fill:#000;fill-opacity:1;stroke:none" id="path63871" d="m 101.96429,99.371109 a 22.5,2.6339285 0 1 1 -45.000003,0 22.5,2.6339285 0 1 1 45.000003,0 z" transform="matrix(1.255137,0,0,1.2561696,-16.438532,-24.992357)"/></g></svg>